<svg xmlns="http://www.w3.org/2000/svg" width="30" height="300">
	<style>
	<![CDATA[
		rect, line, ellipse,path {
			stroke: #ffffff;
			fill: none;
		}
		.fill{
			fill: #ffffff;
		}
		.onlyfill{
			fill: #ffffff;
			stroke: none;
		}
	]]>
	</style>
	<g id="actions">
		<rect x="13.8" y="11.55" width="5.66" height="6.22"
			transform="matrix(0.6220604403469728,0.6220604403469727,-0.6220604403469727,0.6220604403469728,13.721634822936542,-3.8549247272485605) " />
		<line x1="14.95" y1="16.59" x2="6.83" y2="23.01" />
		<line x1="15.25" y1="16.21" x2="15.25" y2="3.29" />
		<g>
			<ellipse cx="16.88" cy="15.2" rx="12.39" ry="14.22"
				transform="matrix(0.8663612919507123,0.152762870812354,-0.152762870812354,0.8663612919507123,2.6561449503904235,-0.38393067372647105) " />
			<ellipse cx="16.68" cy="15.2" rx="10" ry="11.41"
				transform="matrix(0.8663612919507123,0.152762870812354,-0.152762870812354,0.8663612919507123,2.6561449503904235,-0.38393067372647105) " />
		</g>
	</g>
	<g id="credits">
		<path
			d="m7.7451 37.416439l0 14.08276l7.37888 5.416443l7.378891 -5.416443l0 -14.08276l-7.378891 -5.416439l-7.37888 5.416439z" />
		<path
			d="m8.10469 38.727039l4.890491 4.387199l0 4.021603l-4.890491 -4.57l0 -3.838802z"
			class="fill" />
	</g>
	<g id="link">
		<line y2="63.72" x2="19.16" y1="63.72" x1="3.3" />
		<line y2="77.73" x2="18.75" y1="63.4" x1="18.75" />
		<line y2="77.48" x2="13.04" y1="77.48" x1="19.01" />
		<line y2="63.68" x2="3.74" y1="77.57" x1="3.74" />
		<line y2="72.12" x2="26.39" y1="72.12" x1="19.84" />
		<line y2="85.72" x2="26.08" y1="71.76" x1="26.08" />
		<line y2="85.54" x2="11.41" y1="85.54" x1="26.31" />
		<line y2="72.2" x2="11.81" y1="85.17" x1="11.81" />
		<line y2="72.12" x2="17.58" y1="72.12" x1="11.41" />
		<line y2="77.48" x2="3.33" y1="77.48" x1="11.4" />
	</g>
	<path id="mu"
		d="m4.12033 95.640503l15.954471 -0.020706l0.0345 2.096901l7.4786 0l0 2.6493l-7.3836 -0.015999l0 1.561005l7.4102 0l0 2.368996l-7.562099 0l0 1.519005l7.633999 0l0 2.269997l-7.732399 0l0 1.540001l7.6605 0l0 2.319l-7.6551 0l0 2.644997l-10.2295 0.030998l-5.616961 -5.434998l0.00739 -13.528496l0 0z" />
	<g id="agenda">
		<g>
			<g>
				<line y2="141.74" x2="8" y1="139.12" x1="4.51" />
				<line y2="136.62" x2="7.21" y1="138.64" x1="4.44" />
				<line y2="136.5" x2="10.04" y1="136.56" x1="7.34" />
				<g>
					<path
						d="m10.55687 125.291809l3.16862 -3.300873l6.337281 0l3.007479 3.300873l-3.007479 3.12973l-6.477501 0.023544l-3.0284 -3.153275z" />
					<line y2="143.57" x2="10.47" y1="125.55" x1="10.44" />
					<line y2="144.07" x2="23.38" y1="125.6" x1="23.23" />
					<line y2="147.51" x2="20.07" y1="129.04" x1="19.93" />
					<line y2="147.46" x2="14.06" y1="128.99" x1="13.92" />
					<line y2="147.06" x2="13.85" y1="143.62" x1="10.44" />
					<line y2="147.26" x2="20.11" y1="147.26" x1="14.3" />
					<line y2="144.07" x2="23.38" y1="147.11" x1="20.35" />
				</g>
				<g>
					<line y2="145.97" x2="7.99" y1="143.72" x1="4.58" />
					<line y2="146.1" x2="11.62" y1="146.1" x1="8.45" />
				</g>
				<line y2="138.74" x2="4.51" y1="143.54" x1="4.31" />
				<line y2="132.16" x2="8.72" y1="129.33" x1="5.23" />
				<line y2="132.16" x2="10.37" y1="132.16" x1="8.66" />
				<line y2="127.09" x2="7.93" y1="129.2" x1="5.37" />
				<line y2="141.63" x2="8.06" y1="146.04" x1="8.19" />
				<line y2="138.01" x2="5.17" y1="129.39" x1="5.17" />
				<line y2="136.24" x2="8.79" y1="132.35" x1="8.85" />
			</g>
		</g>
		<line y2="127.16" x2="10.17" y1="127.16" x1="8.06" />
		<line y2="141.68" x2="10.17" y1="141.68" x1="8.59" />
	</g>
	<g id="recuring">
		<path
			d="m9.831778 162.140549l0 10.712967l5.613231 4.120377l5.613238 -4.120377l0 -10.712967l-5.613238 -4.120392l-5.613231 4.120392z" />
		<path
			d="m10.105322 163.137543l3.720275 3.337418l0 3.05928l-3.720275 -3.476471l0 -2.920227z"
			class="fill" />
		<path
			d="m8.941221 156.55162c2.296605 -3.8 4.76 -3.92 6.52 -3.862152c2.043548 -0.02 4.7 0.65 6.3 3.9" />
		<line y2="156.39" x2="21.73" y1="153.38" x1="22.14" class="style7" />
		<line y2="156.46" x2="19.13" y1="156.39" x1="21.62" class="style7" />
	</g>
	
	 <path id="virus" d="m9.10633,193.40007c-0.149412,1.415054 0.190759,2.858978 0.964546,4.053635c0.351885,0.54332 0.788396,1.03125 1.289071,1.441574c0.250784,0.205582 0.517564,0.391724 0.797151,0.555954c0.140515,0.082504 0.284348,0.159531 0.430932,0.230927c0.073532,0.035843 0.147894,0.07016 0.222737,0.102966c0.131004,0.057495 0.173115,-0.125702 0.231002,-0.233826c0.193237,-0.360367 0.333215,-0.748779 0.414456,-1.149597c0.023289,-0.114594 0.07898,-0.180206 -0.038378,-0.234589c-0.073607,-0.034042 -0.146311,-0.070206 -0.217911,-0.108124c-0.142654,-0.075821 -0.281312,-0.159134 -0.415079,-0.249542c-0.555386,-0.375732 -1.025121,-0.874893 -1.366043,-1.452332c-0.335411,-0.568222 -0.542917,-1.208725 -0.604604,-1.865631c-0.01654,-0.176544 -0.023156,-0.354218 -0.018679,-0.531555c0.002544,-0.102264 0.008887,-0.204666 0.018057,-0.306656c-0.101646,-0.037628 -0.204754,-0.071274 -0.309011,-0.100983c-0.453334,-0.128723 -0.928024,-0.18042 -1.398238,-0.152222m3.570529,-3.007141c1.161506,-0.836426 2.68861,-1.073303 4.048944,-0.626038c0.322252,0.105927 0.632235,0.248581 0.922577,0.423981c0.125153,0.075653 0.259115,0.243332 0.379858,0.140167c0.146584,-0.125092 0.284554,-0.260361 0.412392,-0.404449c0.235489,-0.265274 0.437199,-0.560364 0.598608,-0.876068c-0.298136,-0.221832 -0.615967,-0.417068 -0.948833,-0.582397c-1.298788,-0.645401 -2.811832,-0.815262 -4.222549,-0.480347c-0.670275,0.159256 -1.312643,0.430984 -1.89422,0.80011c-0.130392,0.082764 -0.257674,0.170425 -0.381592,0.262695c0.08814,0.172577 0.18842,0.339081 0.299643,0.497787c0.22122,0.315781 0.486133,0.600876 0.785164,0.844574m4.498215,7.791565c0.065258,0.403366 0.18993,0.796783 0.368425,1.164185c0.061197,0.125565 0.18372,0.478149 0.327343,0.413635c0.149546,-0.067245 0.296543,-0.140244 0.440376,-0.218994c0.594263,-0.325653 1.134562,-0.748306 1.594227,-1.246216c0.918375,-0.995026 1.495892,-2.280167 1.62566,-3.628296c0.035835,-0.372269 0.038387,-0.747787 0.007513,-1.120636c-0.011234,-0.135895 0.033005,-0.202881 -0.122814,-0.206955c-0.102478,-0.002747 -0.205236,-0.001663 -0.307713,0.003098c-0.204058,0.009583 -0.407427,0.034119 -0.607769,0.073257c-0.200136,0.039078 -0.397568,0.092819 -0.589844,0.160583c-0.148582,0.052444 -0.086218,0.118668 -0.078979,0.258774c0.005175,0.104614 0.006889,0.209091 0.004759,0.313766c-0.006956,0.368164 -0.058498,0.735336 -0.154152,1.090866c-0.349056,1.295288 -1.285009,2.390701 -2.507023,2.942932m-11.718319,-2.876007c1.430349,-2.515488 4.961944,-3.023132 7.054783,-1.02948c0.06423,0.061264 0.668833,0.752838 0.646911,0.765457c0.14879,-0.085953 0.297514,-0.171799 0.446435,-0.25769c0.166914,-0.096268 0.333827,-0.192749 0.500817,-0.289032c0.092136,-0.053192 0.013779,-0.128998 -0.003167,-0.225479c-0.035221,-0.199646 -0.019227,-0.407776 0.045135,-0.599991c0.097659,-0.291214 0.30592,-0.539612 0.57497,-0.687561c0.032733,-0.018051 0.364081,-0.139709 0.364081,-0.134384c0,-0.066025 0,-0.13205 0,-0.197998c0,-0.216812 0,-0.433411 0,-0.650223c0,-0.080765 0,-0.161484 0,-0.242233c0,-0.118134 -0.190891,-0.068436 -0.285723,-0.079193c-2.486628,-0.281937 -4.288155,-2.611298 -3.975693,-5.081573c0.140928,-1.113556 0.713006,-2.152649 1.569488,-2.876343c0.524728,-0.443344 1.14932,-0.764755 1.81573,-0.931808c0.170014,-0.042679 0.10241,-0.2211 0.10241,-0.384918c0,-0.138641 0,-0.277252 0,-0.415833c-2.610394,0.383728 -4.821421,2.312958 -5.559167,4.845673c-0.191239,0.656845 -0.281868,1.34201 -0.270842,2.025848c0.007031,0.43692 0.055615,0.873108 0.145482,1.300781c0.033496,0.159546 -0.035146,0.122192 -0.170298,0.170441c-0.096623,0.034393 -0.192484,0.070984 -0.287514,0.10965c-0.224736,0.091599 -0.444579,0.19516 -0.658353,0.309982c-1.203758,0.646774 -2.198284,1.650253 -2.828654,2.863022c-0.90631,1.744217 -1.019747,3.841034 -0.294611,5.669312c0.192002,-0.110825 0.383996,-0.221756 0.576064,-0.332504c0.139072,-0.080215 0.083871,-0.083466 0.038519,-0.258041c-0.078282,-0.301025 -0.125152,-0.610184 -0.139695,-0.920715c-0.053061,-0.849869 0.171193,-1.728683 0.592888,-2.465179m18.266707,6.0047c-1.184389,0.720947 -2.60095,0.929596 -3.925789,0.47139c-1.324488,-0.456085 -2.378702,-1.526688 -2.819483,-2.855606c-0.247271,-0.746063 -0.297306,-1.555496 -0.141487,-2.325897c0.081799,-0.40358 0.219496,-0.795502 0.407286,-1.161865c-0.032534,-0.078629 -0.327211,-0.18895 -0.398952,-0.230377c-0.174294,-0.100754 -0.348852,-0.201447 -0.523136,-0.302124c-0.080563,-0.046509 -0.05603,-0.056305 -0.132456,0.020935c-0.143209,0.144653 -0.321829,0.253159 -0.516593,0.312347c-0.345684,0.105011 -0.728719,0.050156 -1.030774,-0.148178c-0.039764,-0.026123 -0.254226,-0.230453 -0.271869,-0.220322c-0.067331,0.038864 -0.134597,0.077805 -0.201927,0.116608c-0.188072,0.108536 -0.376212,0.217163 -0.564283,0.325836c-0.062232,0.035904 -0.124531,0.071884 -0.186762,0.107773c-0.06375,0.036728 0.083589,0.239914 0.109856,0.299103c0.34181,0.769165 0.461043,1.628693 0.343611,2.462097c-0.175321,1.244064 -0.877226,2.393631 -1.917105,3.102432c-1.121469,0.764343 -2.539547,0.996674 -3.844744,0.613083c-0.656431,-0.193588 -1.266188,-0.534714 -1.772037,-0.995834c-0.042657,-0.038864 -0.252511,-0.282761 -0.289936,-0.261047c-0.067124,0.038712 -0.134172,0.077454 -0.20123,0.116196c-0.151268,0.087448 -0.302679,0.174622 -0.454022,0.262009c1.726552,2.180984 4.707436,3.105087 7.365105,2.283859c0.712866,-0.220245 1.389002,-0.558548 1.993812,-0.995468c0.159676,-0.115387 0.31446,-0.237564 0.463589,-0.366226c0.101233,-0.087372 0.105577,-0.163528 0.220259,-0.06424c0.075125,0.065063 0.151683,0.128616 0.229626,0.190491c0.332311,0.263596 0.689302,0.496201 1.064411,0.694397c1.226633,0.648087 2.638859,0.908447 4.015797,0.739319c1.770313,-0.217346 3.418093,-1.135864 4.525707,-2.535065c-0.192068,-0.110809 -0.383987,-0.221695 -0.576063,-0.33252c-0.152655,-0.088074 -0.173738,0.031219 -0.298956,0.150238c-0.206404,0.195999 -0.43162,0.372635 -0.671453,0.526657m-0.389708,-10.511185c-0.274565,-0.158508 -0.560144,-0.298065 -0.854076,-0.417297c-0.160025,-0.064835 -0.32266,-0.123764 -0.487093,-0.176422c0.036663,-0.168777 0.067057,-0.338989 0.090836,-0.510056c0.081459,-0.584747 0.087103,-1.180115 0.017088,-1.766373c-0.118462,-0.992111 -0.457529,-1.953568 -0.987431,-2.800598c-1.05345,-1.68396 -2.828304,-2.852081 -4.794825,-3.141205c0,0.156845 0,0.313843 0,0.470749c0,0.087524 0,0.175049 0,0.262589c0,0.094757 0.316326,0.125763 0.404467,0.15451c0.675863,0.220734 1.29714,0.603363 1.79871,1.107407c0.965649,0.970535 1.44903,2.350159 1.29286,3.710846c-0.140383,1.237244 -0.801903,2.377457 -1.800425,3.120712c-0.611624,0.4552 -1.335941,0.751465 -2.091737,0.852966c-0.047756,0.006409 -0.377653,0.023849 -0.377653,0.049286c0,0.062363 0,0.124664 0,0.186951c0,0.233215 0,0.466431 0,0.699661c0,0.072006 0,0.144089 0,0.216095c0,0.069473 0.165471,0.07373 0.225084,0.097321c0.309567,0.122726 0.561389,0.371933 0.68723,0.680466c0.059885,0.146927 0.090488,0.305161 0.090488,0.463745c0,0.052521 -0.069744,0.406387 -0.057331,0.413635c0.161804,0.093307 0.323563,0.186752 0.485369,0.280136c0.156649,0.090485 0.313366,0.180984 0.470016,0.271408c0.030733,0.017838 0.520523,-0.618546 0.60301,-0.702271c0.500883,-0.509354 1.125116,-0.898514 1.804495,-1.120148c2.553816,-0.833466 5.308392,0.769455 5.859575,3.398315c0.143482,0.706177 0.116188,1.44426 -0.081461,2.137558c-0.047417,0.165817 0.092072,0.172226 0.234179,0.254303c0.135973,0.078491 0.271738,0.156937 0.407709,0.235428c1.233181,-3.109436 -0.044722,-6.758743 -2.939054,-8.429733" class="onlyfill"/>
</svg>